<svg width="28" height="28" viewBox="0 0 28 28" fill="none" xmlns="http://www.w3.org/2000/svg">
<path d="M20.462 0H20.3949C17.7229 0 15.3597 1.47035 14.0004 3.64003C12.6411 1.47035 10.278 0 7.606 0H7.53884C5.53355 0.0198725 3.61682 0.861912 2.20518 2.34313C0.793552 3.82435 0.00108858 5.82506 0 7.91047C0 10.5001 1.09066 14.1746 3.21737 17.1982C7.26931 22.9595 14.0004 28 14.0004 28C14.0004 28 20.7316 22.9604 24.7826 17.1982C26.9102 14.1746 28 10.5001 28 7.91047C27.9989 5.82522 27.2066 3.82465 25.7951 2.34346C24.3837 0.862264 22.4672 0.0201163 20.462 0ZM19.5012 17.6414C19.1969 17.6402 18.9001 17.5434 18.6496 17.3635C18.3992 17.1837 18.207 16.9294 18.0981 16.6339H16.5006C16.3954 16.6332 16.293 16.5984 16.2078 16.5343C16.1225 16.4702 16.0586 16.38 16.0251 16.2763L15.5344 14.7389L13.9816 20.381C13.9514 20.4896 13.8881 20.5851 13.8012 20.6531C13.7144 20.7211 13.6086 20.7579 13.4999 20.7581H13.4685C13.3551 20.7524 13.247 20.7064 13.1622 20.6278C13.0775 20.5491 13.0212 20.4426 13.0029 20.326L11.4027 10.3176L10.2333 16.24C10.2064 16.3525 10.1442 16.4524 10.0564 16.5238C9.96856 16.5952 9.86028 16.6339 9.74882 16.6339H7.49854C7.43109 16.6368 7.36375 16.6256 7.30059 16.6008C7.23742 16.576 7.17973 16.5382 7.13099 16.4896C7.08225 16.441 7.04346 16.3827 7.01697 16.3181C6.99047 16.2535 6.97681 16.184 6.97681 16.1138C6.97681 16.0436 6.99047 15.9741 7.01697 15.9095C7.04346 15.845 7.08225 15.7866 7.13099 15.738C7.17973 15.6894 7.23742 15.6516 7.30059 15.6268C7.36375 15.602 7.43109 15.5908 7.49854 15.5937H9.35482L11.0114 7.63111C11.0386 7.51339 11.1043 7.40914 11.1972 7.3362C11.2901 7.26325 11.4045 7.22613 11.5209 7.23119C11.6372 7.23625 11.7482 7.28317 11.835 7.36393C11.9217 7.44469 11.9788 7.55428 11.9964 7.67395L13.6306 17.8835L15.0222 12.8355C15.0511 12.7292 15.1124 12.6355 15.1968 12.5684C15.2812 12.5012 15.3842 12.4643 15.4905 12.4631H15.5003C15.6056 12.4631 15.7081 12.4977 15.7933 12.5619C15.8786 12.6261 15.9421 12.7167 15.9749 12.8206L16.8623 15.5965H18.0783C18.1648 15.3234 18.3222 15.0804 18.533 14.8943C18.7439 14.7083 19.0001 14.5865 19.2734 14.5423C19.5466 14.4981 19.8263 14.5333 20.0815 14.644C20.3368 14.7547 20.5576 14.9366 20.7197 15.1695C20.8819 15.4025 20.9789 15.6775 21.0002 15.9642C21.0215 16.251 20.9662 16.5382 20.8405 16.7943C20.7147 17.0504 20.5233 17.2654 20.2875 17.4155C20.0516 17.5657 19.7805 17.6451 19.5039 17.6451L19.5012 17.6414Z" fill="#E40045"/>
</svg>
